<svg version="1.2" xmlns="http://www.w3.org/2000/svg" viewBox="0 0 1534 1533" width="1534" height="1533"><style>.a{fill:#fff}</style><path fill-rule="evenodd" class="a" d="m346.8 0l255.6 442.1 304.7-175.8-58-100.3-192.3 110.9-160.1-276.9h897.9c76.6 0 138.6 62 138.6 138.6v75.7c-21.2-7.9-45.4-4.1-76 10l-43.4 20c-36.8 16.9-58.7 13.3-73.3-12.2-17.3-30.3-4.5-59.9 36.1-83.1 27.2-15.6 54.9-22 82.4-18.9 2.7-1.9 10.4-30.2 10.4-30.2-35-7.6-73.9 1.4-108.7 21.4-57 32.6-77.1 83.1-51.1 128.5 23.8 41.5 63.6 49.5 118.4 23.8l44.5-20.5c26.5-12 45.2-12 59.1 0l1.6 1.4v81.7c-9.3 3.2-36.8 23.3-36.8 23.3-36.2 20.8-67.8 26-99.6 16.4-3.2 1.8-11.2 31-11.2 31 42.9 13.4 82.9 6.1 128-19.7l19.6-12.2v1157.7h-1394.1c-76.6 0-138.6-62-138.6-138.6v-1255.5c0-76.6 62-138.6 138.6-138.6zm-223.6 102.8c-55.3 31.9-83.4 72.1-97.5 124.9-20.3 76 18.8 139.2 58.7 207.9 39.7 68.8 75 134.2 151.1 154.6 52.9 14.2 103.7 8.8 157.1-22 50.2-28.9 87.5-65.1 103.3-128.2 14.2-55.3 0.9-105.1-41.9-179l-36.8-63.7-179.4 103.5 54.3 93.9 67.6-39 3.7 6.5c10 17.3 16.3 38.5 10.9 58.8-4 16.9-16 33.2-39.8 46.9-20.4 11.9-40.8 12.5-55.5 6.3-18-7.6-33.8-19.9-82.2-103.5-48.4-83.5-50.9-102.7-48.4-122.1 2.1-15.8 12.3-33.6 32.9-45.5 38.5-22.3 66.2-15.9 95.3 13.6l113.1-65.3c-37.4-47.4-93.7-84.6-163.5-81.2-31.7 1.5-66.2 11.4-103 32.6zm996.5 52.3v0.2c0 4.9 45.3 84 45.6 84.7-1.3-1.8-33.8 16.8-33.8 16.8-1 3.4 10.6 23.6 10.6 23.6 3.4 0.9 38.2-19 38.3-19.1v0.1c0 4.8 93.1 167.4 93.1 167.4 24.4 42.6 64 55 103.2 32.6l23.3-13.4c1-3.5-12.7-27.3-12.7-27.3-3.5-1-22 9.7-22 9.7-24.5 14-44.7 7.7-60-19 0 0-96.4-168.2-96.8-169 1.4 2.1 56.8-29.7 56.8-29.7 0.9-3.5-10.6-23.6-10.6-23.6-3.5-1-60.9 31.9-61.1 32.1v-0.2c0-4.6-43.4-80.5-43.4-80.5-3.5-0.9-30.5 14.6-30.5 14.6zm-102.7 162.9c-31 17.8-49.8 43.7-56.6 76.6-0.2-6.4-13.3-29.4-13.3-29.4-3.5-0.9-30.6 14.5-30.6 14.5-0.9 3.5 145.4 259 145.4 259 3.5 0.9 30.5-14.6 30.5-14.6 1-3.4-89.8-161.9-89.8-161.9-26.9-47.1-17-88.7 27.4-114.1 44.1-25.2 83.3-12.8 110.7 35l92 160.7 29.3-16.7c0.9-3.5-92.5-166.8-92.5-166.8-17.4-30.2-41.1-50-68.8-57q-10-2.5-20.2-2.9c-20.5-0.7-41.8 5.2-63.5 17.6zm-238.8 136.7c-28.2 16.2-46.3 38.6-53.9 66.5-9.9 36.3-1 80 25.6 126.5 27 47.1 58.7 75.9 94.2 85.6 29.3 7.9 60.5 2.5 92.9-16 44.9-25.7 60.4-54.8 70.9-93.5-2-3.2-31.3-7.6-31.3-7.6-12.3 36.8-25.8 55-54.5 71.4-51.5 29.6-99.5 11.3-135.8-50.1 5.1-2.8 174.9-100.1 174.9-100.1q0.2-0.4 0.2-0.8c0-4.2-6.2-14.9-6.2-14.9-31.2-54.6-72.3-83.5-116.1-84-19.9-0.3-40.5 5.3-60.9 17zm104.2 33.1c15.4 12.3 21.4 19.4 36 42.4-1.6-2.1-149.6 82.6-149.6 82.6-9-23.2-12.1-31.9-14.8-51.5-3.9-31.3 11.9-62 40.3-78.3 14.2-8.1 30-11.7 45.3-10.8 15.3 0.8 30.2 6.1 42.8 15.6zm-230.6 43.5v0.2c0 8.1 41.8 227.1 48.6 262.8-10.5-9.2-199.3-174.7-199.3-174.7-2.9-0.4-32.6 16.7-32.6 16.7-0.4 4.2 239.1 206.1 239.1 206.1 3 0.3 29.5-14.9 29.5-14.9l1.5-0.8-53.3-310.7c-3.8-1.8-33.5 15.3-33.5 15.3zm-283.2 158c-65.4 37.5-75.9 109.5-28.3 192.9 49.2 85.8 115.7 110.5 187.1 69.6 44.9-25.7 60.5-54.9 71-93.6-2.1-3.1-31.4-7.5-31.4-7.5-12.3 36.8-25.8 55-54.5 71.4-23.4 13.4-46.1 17.3-67.4 11.5-25.7-6.9-48.6-28-68.4-61.5 4.9-2.9 175-100.3 175-100.3q0.1-0.3 0.1-0.8c0-4.1-6.1-14.8-6.1-14.8-31.2-54.6-72.3-83.5-116.1-84-20-0.2-40.5 5.4-61 17.1zm104.2 33c15.3 12.2 21.4 19.3 36 42.4-1.6-2.1-149.6 82.7-149.6 82.7-9-23.3-12-32.1-14.8-51.6-3.9-31.3 12-62 40.4-78.3 14.2-8.1 30-11.7 45.3-10.8 15.3 0.8 30.2 6.1 42.7 15.6z"/></svg>