<?xml version="1.0" encoding="utf-8"?>
<!-- Generator: Adobe Illustrator 27.9.0, SVG Export Plug-In . SVG Version: 6.00 Build 0)  -->
<svg version="1.1" id="svg5" xmlns:svg="http://www.w3.org/2000/svg"
	 xmlns="http://www.w3.org/2000/svg" xmlns:xlink="http://www.w3.org/1999/xlink" x="0px" y="0px" viewBox="0 0 239.8 118.3"
	 style="enable-background:new 0 0 239.8 118.3;" xml:space="preserve">
<style type="text/css">
	.st0{fill:#F5A860;}
	.st1{fill:#FFFFFF;}
	.st2{fill:#5F5F61;}
</style>
<g id="svg5_00000001634708446303650320000005741792816926774671_">
	<g id="layer1">
		<g id="g8977">
			<path id="path8957" class="st0" d="M151.8,0.3c-3.2-0.4-6.1,1.7-6.6,4.9L126.6,112c-0.5,2.8,1.4,5.5,4.2,6c1,0.2,2,0,3-0.4
				l102.1-45c2.9-1.3,4.2-4.6,2.9-7.5c-0.4-0.9-1-1.7-1.8-2.3L154.5,1.4C153.7,0.8,152.8,0.4,151.8,0.3L151.8,0.3z"/>
			<g id="text8971">
				<path id="path9413" class="st1" d="M146.1,47.8c-0.9,0-1.7,0.2-2.4,0.5l0,0c-0.7,0.3-1.3,0.8-1.9,1.3l0,0
					c-0.5,0.5-0.9,1.1-1.2,1.8c-0.3,0.6-0.5,1.3-0.6,1.9l-0.2,1.2L136,81h4.6l2.1-14.4h7.9l0.7-4.5h-7.9l1.1-7.7l0.1-0.4
					c0.1-0.6,0.3-1.1,0.7-1.5c0.4-0.4,0.9-0.6,1.5-0.6h7.8l0.6-4.1H146.1L146.1,47.8z"/>
				<path id="path9419" class="st1" d="M160,47.8L155.2,81h4.6l4.8-33.2H160z"/>
				<path id="path9425" class="st1" d="M171.1,47.8l-0.6,4.2h11.9l-0.6,1l0,0c-0.4,0.7-1,1.6-1.7,2.7l0,0v0
					c-0.7,1.1-1.5,2.4-2.4,3.9l0,0c-0.9,1.4-1.8,2.9-2.8,4.4l0,0c-1,1.5-1.9,3-2.8,4.4c-0.9,1.5-1.8,2.8-2.5,4
					c-0.7,1.2-1.3,2.1-1.8,2.9c-0.5,0.8-0.8,1.2-0.8,1.3v0l0,0c-0.3,0.6-0.5,1.2-0.5,1.8v0v0c0,0.5,0.2,1,0.4,1.4
					c0.2,0.4,0.6,0.7,1,0.9h0l0,0c0.4,0.2,0.8,0.3,1.3,0.3h14.2l0.6-4.2h-12.3c0.5-0.8,1.2-1.9,2.1-3.4l0,0c1-1.5,2-3.2,3.2-5l0,0
					c1.2-1.8,2.4-3.7,3.5-5.6l0,0c1.2-1.9,2.3-3.6,3.3-5.2c1-1.6,1.8-2.9,2.4-3.9l0,0c0.3-0.5,0.6-0.9,0.7-1.2
					c0.1-0.1,0.1-0.2,0.2-0.3c0,0,0-0.1,0.1-0.1c0,0,0,0,0,0l0,0c0,0,0,0,0,0c0.3-0.6,0.5-1.2,0.5-1.8c0-0.5-0.1-1-0.4-1.4
					c-0.2-0.4-0.6-0.7-1-0.9c-0.4-0.2-0.8-0.4-1.3-0.4L171.1,47.8L171.1,47.8z"/>
				<path id="path9431" class="st1" d="M194.5,47.8l-0.6,4.2h11.9l-0.6,1l0,0c-0.4,0.7-1,1.6-1.7,2.7l0,0v0
					c-0.7,1.1-1.5,2.4-2.4,3.9l0,0c-0.9,1.4-1.8,2.9-2.8,4.4c-1,1.5-1.9,3-2.8,4.4c-0.9,1.5-1.8,2.8-2.5,4c-0.7,1.2-1.3,2.1-1.8,2.9
					c-0.5,0.8-0.8,1.2-0.8,1.3v0l0,0c-0.3,0.6-0.5,1.2-0.6,1.8v0v0c0,0.5,0.2,1,0.4,1.4c0.2,0.4,0.6,0.7,1,0.9h0l0,0
					c0.4,0.2,0.8,0.3,1.3,0.3h14.2l0.6-4.2h-12.3c0.5-0.8,1.2-1.9,2.1-3.4l0,0c1-1.5,2-3.2,3.1-5l0,0c1.2-1.8,2.4-3.7,3.5-5.6l0,0
					c1.2-1.9,2.3-3.6,3.3-5.2c1-1.6,1.8-2.9,2.4-3.9l0,0c0.3-0.5,0.6-0.9,0.7-1.2c0.1-0.1,0.1-0.2,0.2-0.3c0,0,0-0.1,0.1-0.1
					c0,0,0,0,0,0c0,0,0,0,0,0c0.3-0.6,0.5-1.2,0.5-1.8c0-0.5-0.1-1-0.4-1.4c-0.2-0.4-0.6-0.7-1-0.9c-0.4-0.2-0.8-0.4-1.3-0.4
					L194.5,47.8L194.5,47.8z"/>
			</g>
			<g id="text8975">
				<path id="path9356" class="st2" d="M8.4,47.8c-1.8,0-3.2,0.2-4.3,0.7c-1,0.4-1.9,1-2.4,1.6c-0.5,0.6-0.9,1.3-1,2
					c-0.1,0.6-0.2,1.1-0.2,1.5v7.4c0,1.2,0.4,2.3,1.1,3.3c0.8,1.1,2,1.8,3.8,2.3l0.1,0h0.1c-0.1,0,0,0,0,0h0l3.3,1.1
					c0.2,0.1,0.4,0.2,0.7,0.3l0.7,0.2c0.7,0.2,1,0.5,1.1,0.9l0,0c0.2,0.4,0.3,0.8,0.3,1v4.8c0,0.2,0,0.4-0.1,0.7
					c-0.1,0.2-0.2,0.4-0.4,0.6h0l0,0c-0.2,0.2-0.5,0.4-1,0.6c-0.4,0.1-1,0.2-1.9,0.2c-0.7,0-1.3-0.1-1.8-0.2
					c-0.4-0.2-0.7-0.4-0.9-0.6c-0.2-0.2-0.3-0.5-0.4-0.7c0-0.3-0.1-0.5-0.1-0.7V74H0.4v1.6c0,0.4,0.1,0.9,0.2,1.5l0,0
					c0.1,0.7,0.5,1.4,1,2c0.6,0.7,1.4,1.2,2.4,1.7l0,0l0,0c1.1,0.4,2.5,0.6,4.3,0.6s3.2-0.2,4.3-0.6l0,0l0,0c1-0.5,1.9-1,2.4-1.7
					c0.5-0.6,0.9-1.3,1-2c0.1-0.6,0.2-1.1,0.2-1.5v-6c0-1.1-0.3-2.1-0.9-3l0,0c-0.3-0.5-0.7-0.9-1.1-1.2c-0.4-0.4-0.9-0.7-1.5-0.9
					c-0.4-0.2-0.9-0.4-1.5-0.5c-0.6-0.2-1.2-0.5-1.9-0.7l0,0c-0.7-0.2-1.3-0.4-1.8-0.6L7,62.4c-0.2,0-0.3-0.1-0.4-0.1h0l0,0
					c-0.7-0.2-1.1-0.5-1.2-0.8c-0.2-0.4-0.3-0.8-0.3-1.1v-5.9c0-0.2,0-0.5,0.1-0.7c0.1-0.2,0.2-0.5,0.4-0.7c0.2-0.2,0.5-0.4,0.9-0.6
					l0,0l0,0c0.4-0.2,1-0.3,1.8-0.3c0.8,0,1.4,0.1,1.8,0.3h0h0c0.4,0.2,0.8,0.3,1,0.5h0l0,0c0.2,0.2,0.4,0.4,0.4,0.6l0,0v0
					c0.1,0.3,0.1,0.5,0.1,0.7v1h4.7v-1.6c0-0.4-0.1-0.9-0.2-1.5c-0.1-0.7-0.5-1.4-1-2c-0.6-0.7-1.4-1.2-2.4-1.6l0,0
					C11.6,48,10.2,47.8,8.4,47.8L8.4,47.8L8.4,47.8z"/>
				<path id="path9362" class="st2" d="M20.9,48.2v4.1h5.6v28.8h4.7V52.3h5.6v-4.1H20.9L20.9,48.2z"/>
				<path id="path9368" class="st2" d="M49,47.8c-1.8,0-3.2,0.2-4.3,0.7l0,0c-1,0.4-1.9,1-2.4,1.6c-0.5,0.6-0.9,1.3-1,2
					c-0.1,0.6-0.2,1.1-0.2,1.5v27.4h4.7V69.9c0-0.3,0.1-0.6,0.2-0.7h0v0c0.2-0.2,0.3-0.4,0.5-0.5c0.3-0.2,0.6-0.3,0.9-0.4l0.6-0.2h0
					c0.2-0.1,0.4-0.1,0.7-0.2h0l0,0c0.1,0,0.3-0.1,0.4-0.2L53.9,81h5l-5.3-15.2c1-0.5,2-1.1,2.4-1.9c0.6-0.9,0.9-1.9,0.9-2.9v-7.4
					c0-0.4-0.1-0.9-0.2-1.5c-0.1-0.7-0.5-1.4-1-2c-0.6-0.7-1.4-1.2-2.4-1.6l0,0C52.2,48,50.7,47.8,49,47.8L49,47.8L49,47.8z
					 M48.9,52.1L48.9,52.1c0.8,0,1.4,0.1,1.8,0.3h0h0c0.4,0.2,0.8,0.3,1,0.5l0,0l0,0c0.2,0.2,0.4,0.4,0.4,0.6l0,0
					c0.1,0.3,0.1,0.5,0.1,0.7v6.1c0,0.2-0.1,0.6-0.3,1l0,0v0c-0.1,0.3-0.5,0.6-1.1,0.8l0,0h0c-0.1,0-0.3,0.1-0.5,0.2l-0.5,0.2
					c-0.4,0.1-0.8,0.3-1.2,0.4l-1.3,0.4c-0.4,0.1-0.9,0.3-1.3,0.4h0c-0.1,0-0.2,0.1-0.3,0.1v-9.6c0-0.2,0-0.5,0.1-0.7
					c0.1-0.2,0.2-0.5,0.4-0.7c0.2-0.2,0.5-0.4,0.9-0.6l0,0l0,0C47.5,52.2,48.1,52.1,48.9,52.1L48.9,52.1L48.9,52.1z"/>
				<path id="path9374" class="st2" d="M68,48.2c-0.9,0-1.7,0.2-2.4,0.5c-0.7,0.3-1.2,0.8-1.7,1.3l0,0c-0.4,0.5-0.8,1.1-1,1.7
					c-0.2,0.6-0.3,1.3-0.3,1.9v22c0,0.6,0.1,1.2,0.3,1.9c0.2,0.6,0.6,1.2,1,1.8l0,0v0c0.5,0.5,1,1,1.7,1.3h0l0,0
					c0.7,0.3,1.5,0.5,2.4,0.5h9.1V77h-7.9c-0.6,0-1.1-0.2-1.5-0.6c-0.4-0.4-0.5-0.9-0.5-1.5v-8h8v-4.5h-8v-8c0-0.6,0.2-1.1,0.5-1.5
					c0.4-0.4,0.8-0.6,1.5-0.6h7.9v-4.1L68,48.2L68,48.2z"/>
				<path id="path9380" class="st2" d="M90.4,47.8c-1.8,0-3.2,0.2-4.3,0.7l0,0c-1,0.4-1.9,1-2.4,1.6c-0.5,0.6-0.9,1.3-1,2
					c-0.1,0.6-0.2,1.1-0.2,1.5v27.4h4.7V69.9c0-0.4,0.1-0.6,0.2-0.7l0,0c0.2-0.3,0.4-0.5,0.6-0.6l0,0l0,0c0.3-0.2,0.6-0.3,0.9-0.4h0
					l2.7-0.9l0,0c0.7-0.2,1.3-0.5,1.8-0.7h0c0.1,0,0.2-0.1,0.3-0.1v14.5h4.7V53.6c0-0.4-0.1-0.9-0.2-1.5c-0.1-0.7-0.5-1.4-1-2
					c-0.6-0.7-1.4-1.2-2.4-1.6l0,0C93.7,48,92.2,47.8,90.4,47.8L90.4,47.8L90.4,47.8z M90.3,52.1L90.3,52.1c0.8,0,1.4,0.1,1.8,0.3h0
					h0c0.4,0.2,0.8,0.3,1,0.5h0v0c0.2,0.2,0.4,0.4,0.4,0.6l0,0c0.1,0.3,0.1,0.5,0.1,0.7v6c0,0.3-0.1,0.7-0.3,1.1
					c-0.1,0.3-0.5,0.6-1.2,0.8h0l0,0c0,0-0.1,0-0.2,0.1c-0.1,0-0.3,0.1-0.6,0.2l0,0l0,0c-0.5,0.2-1.1,0.4-1.7,0.6
					c-0.6,0.2-1.2,0.4-1.9,0.7c-0.3,0.1-0.4,0.1-0.6,0.2v-9.7c0-0.2,0-0.5,0.1-0.7c0.1-0.2,0.2-0.5,0.4-0.7c0.2-0.2,0.5-0.4,0.9-0.6
					l0,0h0C89,52.2,89.5,52.1,90.3,52.1L90.3,52.1L90.3,52.1z"/>
				<path id="path9386" class="st2" d="M111.8,47.8c-1.8,0-3.2,0.2-4.3,0.7l0,0c-1,0.4-1.9,1-2.5,1.6l0,0v0c-0.5,0.6-0.9,1.3-1,2
					c-0.1,0.6-0.2,1.1-0.2,1.5v27.4h4.7V54.4c0-0.2,0-0.5,0.1-0.7c0.1-0.2,0.2-0.5,0.4-0.7c0.2-0.2,0.5-0.4,0.9-0.6h0l0,0
					c0.4-0.2,1-0.3,1.7-0.3c0.8,0,1.4,0.1,1.8,0.3h0h0c0.4,0.2,0.8,0.3,1,0.5h0l0,0c0.2,0.2,0.4,0.4,0.4,0.6l0,0v0
					c0.1,0.3,0.1,0.5,0.1,0.7v26.8h4.7V54.4c0-0.2,0-0.5,0.1-0.7c0.1-0.2,0.2-0.5,0.4-0.7c0.2-0.2,0.5-0.4,0.9-0.6l0,0l0,0
					c0.4-0.2,1-0.3,1.8-0.3c0.8,0,1.4,0.1,1.8,0.3h0h0c0.4,0.2,0.8,0.3,1,0.5h0v0c0.2,0.2,0.4,0.4,0.4,0.6l0,0v0
					c0.1,0.3,0.1,0.5,0.1,0.7v26.8h4.7V53.6c0-0.4-0.1-0.9-0.2-1.5c-0.1-0.7-0.5-1.4-1-2c-0.6-0.7-1.4-1.2-2.4-1.6l0,0
					c-1.1-0.5-2.5-0.7-4.3-0.7c-1.4,0-2.6,0.1-3.6,0.5c-0.8,0.2-1.5,0.6-2.1,0.9c-0.6-0.4-1.2-0.7-2-0.9l0,0
					C114.4,48,113.2,47.8,111.8,47.8L111.8,47.8L111.8,47.8z"/>
			</g>
		</g>
	</g>
</g>
</svg>
